<svg width="220" height="152" viewBox="0 0 220 152" fill="none" xmlns="http://www.w3.org/2000/svg">
<path fill-rule="evenodd" clip-rule="evenodd" d="M172.5 71C192.106 71 208 55.1061 208 35.5C208 15.8939 192.106 0 172.5 0C152.894 0 137 15.8939 137 35.5C137 55.1061 152.894 71 172.5 71ZM172.5 49.806C180.401 49.806 186.806 43.401 186.806 35.5C186.806 27.599 180.401 21.194 172.5 21.194C164.599 21.194 158.194 27.599 158.194 35.5C158.194 43.401 164.599 49.806 172.5 49.806Z" fill="#3B80F1"/>
<path fill-rule="evenodd" clip-rule="evenodd" d="M172.5 71C192.106 71 208 55.1061 208 35.5C208 27.1249 205.1 19.4272 200.249 13.3563L185.024 28.5808C186.16 30.6314 186.806 32.9902 186.806 35.5C186.806 43.401 180.401 49.806 172.5 49.806C164.599 49.806 158.194 43.401 158.194 35.5C158.194 33.3989 158.647 31.4035 159.461 29.6063L143.252 15.3751C139.309 21.0946 137 28.0277 137 35.5C137 55.1061 152.894 71 172.5 71ZM182.3 25.0775L197.289 10.0882C190.891 3.8461 182.145 0 172.5 0C161.95 0 152.475 4.60217 145.972 11.9085L161.9 25.8925C164.517 23.0065 168.297 21.194 172.5 21.194C176.292 21.194 179.74 22.6694 182.3 25.0775Z" fill="#36C9FF"/>
<path d="M9.99997 48.5V38.5L217.5 37V49L212.5 51L209.5 56.5L212 61.5L217.5 64L216.5 81L212.5 84L208.5 89L212.5 94.5L217.5 98.5C217.167 103.5 216.4 113.6 216 114C215.6 114.4 214.167 114.833 213.5 115L209 119.5L211 127.5L218 132L216 141.5H11.5L9.99997 138L11.5 132L14 129.5L18 124.5L16 118.5L11.5 115.5L9.99997 112.5V98L14 96L18 92.5V87L14 84L9.99997 81V65L14 63L18 58L16 51.5L9.99997 48.5Z" fill="white"/>
<path d="M39.5 37.5L49.6147 38.0553L10.0553 77.6147L10.0553 66.5L17 59L16 51.5594L30.0594 37.5L39.5 37.5Z" fill="#3B80F1"/>
<path d="M61.046 58.5L61.046 64.6105L10.6565 115L10 110L9.5 105.5L9.5 96.046L15 93.5L18.3668 87.1792L61.046 44.5L61.046 58.5Z" fill="#3B80F1"/>
<path d="M61 102.643L21 142.643L13 142L8.5 139.5L9.03255 134.5L61 82.5325L61 102.643Z" fill="#3B80F1"/>
<path d="M61.3152 137L61 138.5L61 140.63L59.5 142.13L53 142.5L47.5 142.13L40 141.519L61.3152 120.204L61.3152 137Z" fill="#3B80F1"/>
<path d="M61 39.5V139" stroke="black" stroke-width="6" stroke-dasharray="12 12"/>
<path fill-rule="evenodd" clip-rule="evenodd" d="M12.5 46.7V40H7.49997V49V51.5H9.99997H10.5C13.2614 51.5 15.5 53.7386 15.5 56.5C15.5 59.2614 13.2614 61.5 10.5 61.5H9.99997H7.49997V64V71.5V73V82V84.5H9.99997H10.5C13.2614 84.5 15.5 86.7386 15.5 89.5C15.5 92.2614 13.2614 94.5 10.5 94.5H9.99997H7.49997V97V104.5V106V115V117.5H9.99997H10.5C13.2614 117.5 15.5 119.739 15.5 122.5C15.5 125.261 13.2614 127.5 10.5 127.5H9.99997H7.49997V130V137.5V139H12.5V137.5V132.3C17.0645 131.373 20.5 127.338 20.5 122.5C20.5 117.662 17.0645 113.627 12.5 112.7V106V104.5V99.3C17.0645 98.3734 20.5 94.3379 20.5 89.5C20.5 84.6621 17.0645 80.6266 12.5 79.7V73V71.5V66.3C17.0645 65.3734 20.5 61.3379 20.5 56.5C20.5 51.6621 17.0645 47.6266 12.5 46.7Z" fill="black"/>
<path fill-rule="evenodd" clip-rule="evenodd" d="M215 132.3L215 139L220 139L220 130L220 127.5L217.5 127.5L217 127.5C214.239 127.5 212 125.261 212 122.5C212 119.739 214.239 117.5 217 117.5L217.5 117.5L220 117.5L220 115L220 107.5L220 106L220 97L220 94.5L217.5 94.5L217 94.5C214.239 94.5 212 92.2614 212 89.5C212 86.7386 214.239 84.5 217 84.5L217.5 84.5L220 84.5L220 82L220 74.5L220 73L220 64L220 61.5L217.5 61.5L217 61.5C214.239 61.5 212 59.2614 212 56.5C212 53.7386 214.239 51.5 217 51.5L217.5 51.5L220 51.5L220 49L220 41.5L220 40L215 40L215 41.5L215 46.7C210.436 47.6266 207 51.6621 207 56.5C207 61.3379 210.436 65.3734 215 66.3L215 73L215 74.5L215 79.7C210.436 80.6266 207 84.6621 207 89.5C207 94.3379 210.436 98.3734 215 99.3L215 106L215 107.5L215 112.7C210.436 113.627 207 117.662 207 122.5C207 127.338 210.436 131.373 215 132.3Z" fill="black"/>
<path d="M7.49997 37H220M220 142H7.49997" stroke="black" stroke-width="6"/>
<path d="M109.551 127H105.461V119.875H99.4023V127H95.2891V109.938H99.4023V116.711H105.461V109.938H109.551V127ZM119.125 127C118.984 126.742 118.859 126.363 118.75 125.863C118.023 126.777 117.008 127.234 115.703 127.234C114.508 127.234 113.492 126.875 112.656 126.156C111.82 125.43 111.402 124.52 111.402 123.426C111.402 122.051 111.91 121.012 112.926 120.309C113.941 119.605 115.418 119.254 117.355 119.254H118.574V118.586C118.574 117.422 118.07 116.84 117.062 116.84C116.125 116.84 115.656 117.301 115.656 118.223H111.707C111.707 116.996 112.227 116 113.266 115.234C114.312 114.469 115.645 114.086 117.262 114.086C118.879 114.086 120.156 114.48 121.094 115.27C122.031 116.059 122.512 117.141 122.535 118.516V124.129C122.551 125.293 122.73 126.184 123.074 126.801V127H119.125ZM116.652 124.422C117.145 124.422 117.551 124.316 117.871 124.105C118.199 123.895 118.434 123.656 118.574 123.391V121.363H117.426C116.051 121.363 115.363 121.98 115.363 123.215C115.363 123.574 115.484 123.867 115.727 124.094C115.969 124.312 116.277 124.422 116.652 124.422ZM128.465 114.32L128.594 115.809C129.492 114.66 130.699 114.086 132.215 114.086C133.816 114.086 134.898 114.723 135.461 115.996C136.32 114.723 137.562 114.086 139.188 114.086C141.758 114.086 143.078 115.641 143.148 118.75V127H139.188V118.996C139.188 118.348 139.078 117.875 138.859 117.578C138.641 117.281 138.242 117.133 137.664 117.133C136.883 117.133 136.301 117.48 135.918 118.176L135.93 118.34V127H131.969V119.02C131.969 118.355 131.863 117.875 131.652 117.578C131.441 117.281 131.039 117.133 130.445 117.133C129.688 117.133 129.109 117.48 128.711 118.176V127H124.762V114.32H128.465ZM157.176 120.766C157.176 122.844 156.746 124.441 155.887 125.559C155.027 126.676 153.816 127.234 152.254 127.234C150.965 127.234 149.926 126.723 149.137 125.699L148.973 127H145.434V109H149.383V115.34C150.117 114.504 151.066 114.086 152.23 114.086C153.809 114.086 155.027 114.652 155.887 115.785C156.746 116.918 157.176 118.512 157.176 120.566V120.766ZM153.215 120.52C153.215 119.301 153.051 118.434 152.723 117.918C152.402 117.395 151.906 117.133 151.234 117.133C150.344 117.133 149.727 117.473 149.383 118.152V123.191C149.719 123.863 150.344 124.199 151.258 124.199C152.188 124.199 152.777 123.746 153.027 122.84C153.152 122.395 153.215 121.621 153.215 120.52ZM166.48 125.629C165.645 126.699 164.516 127.234 163.094 127.234C161.703 127.234 160.648 126.832 159.93 126.027C159.219 125.215 158.863 124.051 158.863 122.535V114.32H162.812V122.559C162.812 123.645 163.34 124.188 164.395 124.188C165.301 124.188 165.945 123.863 166.328 123.215V114.32H170.301V127H166.598L166.48 125.629ZM180.145 117.895L178.844 117.801C177.602 117.801 176.805 118.191 176.453 118.973V127H172.504V114.32H176.207L176.336 115.949C177 114.707 177.926 114.086 179.113 114.086C179.535 114.086 179.902 114.133 180.215 114.227L180.145 117.895ZM180.871 120.566C180.871 119.285 181.082 118.152 181.504 117.168C181.926 116.184 182.531 115.426 183.32 114.895C184.109 114.355 185.027 114.086 186.074 114.086C187.395 114.086 188.426 114.531 189.168 115.422L189.309 114.32H192.895V126.52C192.895 127.637 192.633 128.605 192.109 129.426C191.594 130.254 190.844 130.887 189.859 131.324C188.875 131.77 187.734 131.992 186.438 131.992C185.508 131.992 184.605 131.816 183.73 131.465C182.863 131.113 182.199 130.656 181.738 130.094L183.391 127.773C184.125 128.641 185.094 129.074 186.297 129.074C188.047 129.074 188.922 128.176 188.922 126.379V125.98C188.164 126.816 187.207 127.234 186.051 127.234C184.504 127.234 183.254 126.645 182.301 125.465C181.348 124.277 180.871 122.691 180.871 120.707V120.566ZM184.832 120.812C184.832 121.852 185.027 122.676 185.418 123.285C185.809 123.887 186.355 124.188 187.059 124.188C187.91 124.188 188.531 123.902 188.922 123.332V118C188.539 117.422 187.926 117.133 187.082 117.133C186.379 117.133 185.828 117.449 185.43 118.082C185.031 118.707 184.832 119.617 184.832 120.812Z" fill="black"/>
<path d="M192.743 68.997L189.993 65.6968C189.885 65.5762 189.731 65.5072 189.569 65.5072C189.407 65.5072 189.254 65.5762 189.146 65.6968L186.396 68.997C186.259 69.1611 186.229 69.3897 186.32 69.583C186.411 69.7762 186.605 69.8997 186.819 69.8992H187.694C186.88 73.216 183.931 75.7736 180.219 76.3677V62.1987H185.169C185.473 62.1987 185.719 61.9524 185.719 61.6486V59.4485C185.719 59.1447 185.473 58.8985 185.169 58.8985H180.219V57.4793C182.171 56.6897 183.29 54.6271 182.888 52.5596C182.486 50.4925 180.675 49 178.568 49C176.463 49 174.652 50.4925 174.249 52.5596C173.847 54.6271 174.966 56.6897 176.918 57.4793V58.8985H171.968C171.664 58.8985 171.418 59.1447 171.418 59.4485V61.6486C171.418 61.9524 171.664 62.1987 171.968 62.1987H176.918V76.3677C173.206 75.7736 170.258 73.216 169.444 69.8992H170.318C170.532 69.8997 170.726 69.7762 170.817 69.583C170.908 69.3897 170.878 69.1611 170.742 68.997L167.991 65.6968C167.884 65.5762 167.73 65.5072 167.568 65.5072C167.406 65.5072 167.252 65.5762 167.145 65.6968L164.394 68.997C164.258 69.1611 164.228 69.3897 164.319 69.583C164.41 69.7762 164.604 69.8997 164.818 69.8992H166.044C166.847 75.0146 171.308 79.0352 176.918 79.7009V80.3498C176.92 80.4956 176.977 80.6356 177.078 80.7403L178.178 81.8404C178.395 82.0531 178.742 82.0531 178.959 81.8404L180.059 80.7403C180.161 80.6356 180.218 80.4956 180.219 80.3498V79.7009C185.829 79.0352 190.29 75.0146 191.093 69.8992H192.319C192.533 69.8997 192.728 69.7762 192.818 69.583C192.909 69.3897 192.88 69.1611 192.743 68.997V68.997ZM178.568 55.0482C177.657 55.0482 176.918 54.3094 176.918 53.3981C176.918 52.4869 177.657 51.748 178.568 51.748C179.48 51.748 180.219 52.4869 180.219 53.3981C180.219 54.3094 179.48 55.0482 178.568 55.0482Z" fill="black"/>
<path d="M36.3892 116.359C37.1313 116.393 37.7881 116.593 38.3594 116.959C38.9258 117.326 39.3652 117.841 39.6777 118.505C39.9902 119.164 40.1465 119.918 40.1465 120.768C40.1465 122.169 39.6899 123.273 38.7769 124.079C37.8638 124.884 36.5747 125.287 34.9097 125.287L34.3823 125.287C33.3374 125.287 32.4243 125.106 31.6431 124.745C30.8569 124.379 30.2515 123.854 29.8267 123.17C29.397 122.487 29.1821 121.696 29.1821 120.797C29.1821 119.503 29.5239 118.463 30.2075 117.677C30.8862 116.891 31.8237 116.444 33.02 116.337L33.02 118.9C32.3706 118.92 31.9043 119.083 31.6211 119.391C31.3379 119.699 31.1963 120.167 31.1963 120.797C31.1963 121.437 31.4355 121.906 31.9141 122.204C32.3926 122.501 33.1567 122.658 34.2065 122.672L34.9609 122.672C36.0986 122.672 36.9116 122.531 37.3999 122.248C37.8882 121.959 38.1323 121.466 38.1323 120.768C38.1323 120.177 37.9932 119.726 37.7148 119.413C37.4365 119.101 36.9946 118.935 36.3892 118.915L36.3892 116.359ZM34.8877 103.562C35.9277 103.562 36.8481 103.755 37.6489 104.141C38.4497 104.527 39.0674 105.076 39.502 105.789C39.9316 106.497 40.1465 107.305 40.1465 108.213C40.1465 109.121 39.939 109.927 39.5239 110.63C39.104 111.333 38.5059 111.883 37.7295 112.278C36.9531 112.669 36.062 112.874 35.0562 112.893L34.4556 112.893C33.4106 112.893 32.4902 112.703 31.6943 112.322C30.8936 111.936 30.2759 111.387 29.8413 110.674C29.4067 109.956 29.1895 109.141 29.1895 108.228C29.1895 107.325 29.4043 106.519 29.834 105.811C30.2637 105.103 30.8765 104.554 31.6724 104.163C32.4634 103.767 33.3716 103.567 34.397 103.562L34.8877 103.562ZM34.4409 106.177C33.3813 106.177 32.5781 106.355 32.0312 106.712C31.4795 107.063 31.2036 107.569 31.2036 108.228C31.2036 109.517 32.1704 110.198 34.104 110.271L34.8877 110.279C35.9326 110.279 36.7358 110.105 37.2974 109.759C37.8589 109.412 38.1396 108.897 38.1396 108.213C38.1396 107.564 37.8638 107.063 37.312 106.712C36.7603 106.36 35.9668 106.182 34.9316 106.177L34.4409 106.177ZM29.3359 91.3224L36.3159 91.3224C37.1069 91.3224 37.793 91.4908 38.374 91.8277C38.9502 92.1646 39.3896 92.648 39.6924 93.2779C39.9951 93.9078 40.1465 94.6524 40.1465 95.5118C40.1465 96.8106 39.8096 97.8336 39.1357 98.5807C38.4619 99.3277 37.5391 99.7086 36.3672 99.7232L29.3359 99.7232L29.3359 97.1378L36.4185 97.1378C37.5854 97.1085 38.1689 96.5665 38.1689 95.5118C38.1689 94.9796 38.0225 94.5768 37.7295 94.3033C37.4365 94.0299 36.9604 93.8932 36.3013 93.8932L29.3359 93.8932L29.3359 91.3224ZM36.3818 84.5902L40 84.5902L40 87.161L29.3359 87.161L29.3359 82.9057C29.3359 82.0902 29.4873 81.37 29.79 80.745C30.0879 80.1151 30.5151 79.6293 31.0718 79.2875C31.6235 78.9408 32.251 78.7675 32.9541 78.7675C33.9941 78.7675 34.8267 79.141 35.4517 79.8881C36.0718 80.6303 36.3818 81.6508 36.3818 82.9496L36.3818 84.5902ZM34.397 84.5902L34.397 82.9057C34.397 82.4076 34.2725 82.0292 34.0234 81.7704C33.7744 81.5067 33.4228 81.3749 32.9687 81.3749C32.4707 81.3749 32.0728 81.5092 31.7749 81.7777C31.477 82.0463 31.3257 82.4125 31.3208 82.8764L31.3208 84.5902L34.397 84.5902ZM34.8877 65.8098C35.9277 65.8098 36.8481 66.0026 37.6489 66.3884C38.4497 66.7741 39.0674 67.3234 39.502 68.0363C39.9316 68.7443 40.1465 69.5524 40.1465 70.4606C40.1465 71.3688 39.939 72.1745 39.5239 72.8776C39.104 73.5808 38.5059 74.1301 37.7295 74.5256C36.9531 74.9162 36.062 75.1213 35.0562 75.1408L34.4556 75.1408C33.4106 75.1408 32.4902 74.9504 31.6943 74.5695C30.8936 74.1838 30.2759 73.6345 29.8413 72.9216C29.4067 72.2038 29.1895 71.3884 29.1895 70.4753C29.1895 69.572 29.4043 68.7663 29.834 68.0583C30.2637 67.3503 30.8765 66.801 31.6724 66.4104C32.4634 66.0148 33.3716 65.8146 34.397 65.8098L34.8877 65.8098ZM34.4409 68.4245C33.3813 68.4245 32.5781 68.6027 32.0312 68.9592C31.4795 69.3107 31.2036 69.8161 31.2036 70.4753C31.2036 71.7644 32.1704 72.4455 34.104 72.5187L34.8877 72.5261C35.9326 72.5261 36.7358 72.3527 37.2974 72.0061C37.8589 71.6594 38.1396 71.1442 38.1396 70.4606C38.1396 69.8112 37.8638 69.3107 37.312 68.9592C36.7603 68.6076 35.9668 68.4294 34.9316 68.4245L34.4409 68.4245ZM40 53.0278L40 55.584L33.3643 59.3633L40 59.3633L40 61.9341L29.3359 61.9341L29.3359 59.3633L35.9717 55.5913L29.3359 55.5913L29.3359 53.0278L40 53.0278Z" fill="black"/>
<path d="M62 7L56.6 12L51.2 7L45.8 12L40.4 7L35 12" stroke="#3B80F1" stroke-width="3"/>
<path d="M91 19L86.2 24L81.4 19L76.6 24L71.8 19L67 24" stroke="#3B80F1" stroke-width="3"/>
<path d="M125 8L120.8 12L116.6 8L112.4 12L108.2 8L104 12" stroke="#3B80F1" stroke-width="3"/>
</svg>
